# AST/ASF file generated using VICON BodyLanguage
# -----------------------------------------------
:version 1.10
:name VICON
:units
  mass 1.0
  length 0.45
  angle deg
:documentation
   .ast/.asf automatically generated from VICON data using
   VICON BodyBuilder and BodyLanguage model FoxedUp or BRILLIANT.MOD
:root
   order TX TY TZ RX RY RZ
   axis XYZ
   position 0 0 0  
   orientation 0 0 0 
:bonedata
  begin
     id 1 
     name lhipjoint
     direction 0.589753 -0.68606 0.426044 
     length 2.54082 
     axis 0 0 0  XYZ
  end
  begin
     id 2 
     name lfemur
     direction 0.34202 -0.939693 0  
     length 7.04539  
     axis 0 0 20  XYZ
    dof rx ry rz
    limits (-160.0 20.0)
           (-70.0 70.0)
           (-60.0 70.0)
  end
  begin
     id 3 
     name ltibia
     direction 0.34202 -0.939693 0   
     length 7.83772   
     axis 0 0 20   XYZ
    dof rx
    limits (-10.0 170.0)
  end
  begin
     id 4 
     name lfoot
     direction 0.0596604 -0.163915 0.984669   
     length 2.39542   
     axis -90 7.62852e-016 20   XYZ
    dof rx rz
    limits (-45.0 90.0)
           (-70.0 20.0)
  end
  begin
     id 5 
     name ltoes
     direction 1.53514e-011 -4.21954e-011 1   
     length 1.2047   
     axis -90 7.62852e-016 20   XYZ
    dof rx
    limits (-90.0 20.0)
  end
  begin
     id 6 
     name rhipjoint
     direction -0.580585 -0.69168 0.429534   
     length 2.52018  
     axis 0 0 0  XYZ 
  end
  begin
     id 7 
     name rfemur
     direction -0.34202 -0.939693 0   
     length 7.0101   
     axis 0 0 -20   XYZ
    dof rx ry rz
    limits (-160.0 20.0)
           (-70.0 70.0)
           (-70.0 60.0)
  end
  begin
     id 8 
     name rtibia
     direction -0.34202 -0.939693 0   
     length 7.70628   
     axis 0 0 -20   XYZ
    dof rx
    limits (-10.0 170.0)
 end
 begin
     id 9 
     name rfoot
     direction -0.0696237 -0.19129 0.979061   
     length 2.52466  
     axis -90 -7.62852e-016 -20   XYZ
    dof rx rz
    limits (-45.0 90.0)
           (-20.0 70.0)
  end
  begin
     id 10 
     name rtoes
     direction -1.53519e-011 -4.21793e-011 1   
     length 1.266   
     axis -90 -7.62852e-016 -20   XYZ
    dof rx
    limits (-90.0 20.0)
  end
  begin
     id 11 
     name lowerback
     direction 0.00381965 0.995707 -0.0924856   
     length 2.20825   
     axis 0 0 0   XYZ
    dof rx ry rz
    limits (-20.0 45.0)
           (-30.0 30.0)
           (-30.0 30.0)
  end
  begin
     id 12 
     name upperback
     direction -0.0139043 0.999634 -0.0231929   
     length 2.21517   
     axis 0 0 0   XYZ
    dof rx ry rz
    limits (-20.0 45.0)
           (-30.0 30.0)
           (-30.0 30.0)
  end
  begin
     id 13 
     name thorax
     direction -0.0143933 0.999691 0.0202892   
     length 2.22911   
     axis 0 0 0   XYZ
    dof rx ry rz
    limits (-20.0 45.0)
           (-30.0 30.0)
           (-30.0 30.0)
  end
  begin
     id 14 
     name lowerneck
     direction -0.0251153 0.981819 0.188153   
     length 1.61782   
     axis 0 0 0   XYZ
    dof rx ry rz
    limits (-20.0 45.0)
           (-30.0 30.0)
           (-30.0 30.0)
  end
  begin
     id 15 
     name upperneck
     direction 0.0563891 0.969357 -0.239095   
     length 1.64526   
     axis 0 0 0   XYZ
    dof rx ry rz
    limits (-20.0 45.0)
           (-30.0 30.0)
           (-30.0 30.0)
  end
  begin
     id 16
     name head
     direction 0.0208328 0.99459 -0.101773  
     length 1.67436  
     axis 0 0 0   XYZ
    dof rx ry rz
    limits (-20.0 45.0)
           (-30.0 30.0)
           (-30.0 30.0)
  end
  begin
     id 17 
     name lclavicle
     direction 0.917689 0.397224 0.00772059  
     length 3.31102  
     axis 0 0 0   XYZ
    dof ry rz
    limits (-20.0 10.0)
           (0.0 20.0)
  end
  begin
     id 18 
     name lhumerus
     direction 1 -4.4896e-011 2.32308e-027   
     length 5.25537   
     axis 180 -30 -90   XYZ
    dof rx ry rz
    limits (-60.0 90.0)
           (-90.0 90.0)
           (-90.0 90.0)
  end
  begin
     id 19
     name lradius
     direction 1 -4.49005e-011 -2.04271e-027   
     length 3.38855   
     axis 180 -30 -90   XYZ
    dof rx
    limits (-10.0 170.0)
  end
  begin
     id 20
     name lwrist
     direction 1 -4.48892e-011 2.56952e-028   
     length 1.69428   
     axis -5.12785e-016 90 90   XYZ
    dof ry
    limits (-180.0 0.0)
 end
  begin
     id 21 
     name lhand
     direction 1 -4.48966e-011 5.13905e-028   
     length 0.614516   
     axis -3.27915e-016 90 90   XYZ
    dof rx rz
    limits (-90.0 90.0)
           (-45.0 45.0)
  end
  begin
     id 22 
     name lfingers
     direction 1 -4.48979e-011 1.02781e-027   
     length 0.495439   
     axis -6.5583e-016 90 90   XYZ
    dof rx
    limits (0.0 90.0)
  end
  begin
     id 23
     name lthumb
     direction 0.707107 -6.35001e-011 0.707107   
     length 0.711354   
     axis -90 45 2.85299e-015   XYZ
    dof rx rz
    limits (-45.0 45.0)
           (-45.0 45.0)
  end
  begin
     id 24 
     name rclavicle
     direction -0.938556 0.342765 -0.0403177   
     length 3.27019  
     axis 0 0 0   XYZ 
    dof ry rz
    limits (-10.0 20.0)
           (-20.0 0.0)
  end
  begin
     id 25 
     name rhumerus
     direction -1 -4.48966e-011 2.52291e-027  
     length 5.38183   
     axis 180 30 90   XYZ
    dof rx ry rz
    limits (-90.0 60.0)
           (-90.0 90.0)
           (-90.0 90.0)
  end
  begin
     id 26 
     name rradius
     direction -1 -4.4896e-011 1.5797e-027   
     length 3.16988   
     axis 180 30 90   XYZ
    dof rx
    limits (-10.0 170.0)
  end
  begin
     id 27 
     name rwrist
     direction -1 -4.48947e-011 2.56952e-028   
     length 1.58494   
     axis -5.12785e-016 -90 -90   XYZ
    dof ry
    limits (-180.0 0.0)
  end
  begin
     id 28
     name rhand
     direction -1 -4.49098e-011 5.13905e-028   
     length 0.637679   
     axis -3.27915e-016 -90 -90   XYZ
    dof rx rz
    limits (-90.0 90.0)
           (-45.0 45.0)
  end
  begin
     id 29
     name rfingers
     direction -1 -4.49026e-011 1.02781e-027   
     length 0.514113   
     axis -6.5583e-016 -90 -90   XYZ
    dof rx
    limits (0.0 90.0)
  end
  begin
     id 30
     name rthumb
     direction -0.707107 -6.3491e-011 0.707107   
     length 0.738167   
     axis -90 -45 -2.85299e-015   XYZ
    dof rx rz
    limits (-45.0 45.0)
           (-45.0 45.0)
  end
:hierarchy
  begin
    root lhipjoint rhipjoint lowerback
    lhipjoint lfemur
    lfemur ltibia
    ltibia lfoot
    lfoot ltoes
    rhipjoint rfemur
    rfemur rtibia
    rtibia rfoot
    rfoot rtoes
    lowerback upperback
    upperback thorax
    thorax lowerneck lclavicle rclavicle
    lowerneck upperneck
    upperneck head
    lclavicle lhumerus
    lhumerus lradius
    lradius lwrist
    lwrist lhand lthumb
    lhand lfingers
    rclavicle rhumerus
    rhumerus rradius
    rradius rwrist
    rwrist rhand rthumb
    rhand rfingers
  end

#!OML:ASF H:\Swim\Project 1\Capture day 1\Session 1\swimmer.ASF
:FULLY-SPECIFIED
:DEGREES
2395
root 5.77177 9.69803 15.3545 90.4637 0.661551 -0.790171
lowerback 1.77547 -1.82035 2.40652
upperback -4.09432 -2.43121 -1.39533
thorax -5.39801 -1.3553 -2.63511
lowerneck -9.71098 -4.44108 -13.8959
upperneck 1.70827 -5.31024 19.3725
head 3.08318 -2.16763 8.05505
rclavicle -9.54166e-015 4.67144e-015
rhumerus 36.9025 15.2853 6.04158
rradius 43.4716
rwrist -27.3966
rhand 0.696587 -9.00169
rfingers 7.12502
rthumb 26.2574 -37.2049
lclavicle -9.54166e-015 4.67144e-015
lhumerus 33.1444 -7.77151 -0.358705
lradius 39.7547
lwrist 12.8416
lhand -2.03674 -340.679
lfingers 7.12502
lthumb 23.6382 407.888
rfemur -14.9303 24.9761 2.62777
rtibia 23.8842
rfoot -7.47826 -30.3773
rtoes 0.470247
lfemur -19.7388 -28.5233 -3.0818
ltibia 25.201
lfoot 7.30765 24.8355
ltoes 20.3021
2396
root 5.76977 9.68896 15.3072 90.0006 0.66963 -0.840427
lowerback 2.04927 -1.79581 2.3783
upperback -4.07746 -2.39151 -1.36494
thorax -5.53157 -1.33421 -2.58224
lowerneck -9.85716 -4.46452 -13.7555
upperneck 1.422 -5.31272 19.4258
head 3.02459 -2.16619 8.04513
rclavicle -7.95139e-015 -9.74045e-015
rhumerus 35.6481 16.1139 5.161
rradius 45.3517
rwrist -28.215
rhand 0.486034 -8.45717
rfingers 7.12502
rthumb 26.0558 -36.6902
lclavicle -7.95139e-015 -9.74045e-015
lhumerus 31.8392 -8.39449 0.642928
lradius 41.2422
lwrist 14.692
lhand -3.38573 -340.701
lfingers 7.12502
lthumb 22.3437 408.027
rfemur -15.1559 26.2192 2.91893
rtibia 24.3453
rfoot -9.29191 -31.1018
rtoes 1.37981
lfemur -19.7458 -28.9129 -3.51928
ltibia 25.6381
lfoot 6.45412 25.5131
ltoes 21.0216
2397
root 5.7676 9.68048 15.2582 89.5148 0.683785 -0.863646
lowerback 2.35131 -1.78123 2.35836
upperback -4.05026 -2.36462 -1.3402
thorax -5.67213 -1.31987 -2.53851
lowerneck -10.0088 -4.48831 -13.6123
upperneck 1.16442 -5.31795 19.4596
head 2.97475 -2.16599 8.0281
rclavicle -1.82882e-014 -7.7526e-015
rhumerus 34.3902 16.9522 4.26713
rradius 47.301
rwrist -29.3456
rhand 0.201619 -8.02824
rfingers 7.12502
rthumb 25.7835 -36.3011
lclavicle -1.82882e-014 -7.7526e-015
lhumerus 30.5487 -8.96107 1.68406
lradius 42.7776
lwrist 16.5312
lhand -4.72793 -340.697
lfingers 7.12502
lthumb 21.0548 408.18
rfemur -15.3144 27.3159 3.27698
rtibia 24.842
rfoot -11.0862 -31.7339
rtoes 2.31854
lfemur -19.6995 -29.139 -4.02247
ltibia 26.0969
lfoot 5.62707 26.0332
ltoes 21.4877
2398
root 5.76516 9.6727 15.2076 89.0106 0.699331 -0.85826
lowerback 2.67745 -1.77459 2.34195
upperback -4.01023 -2.34804 -1.32138
thorax -5.81429 -1.31074 -2.50179
lowerneck -10.1303 -4.512 -13.4553
upperneck 0.86762 -5.32054 19.4466
head 2.90565 -2.16844 7.99335
rclavicle 5.56597e-015 3.77691e-015
rhumerus 33.1243 17.7954 3.38972
rradius 49.3317
rwrist -30.8485
rhand -0.1938 -7.73663
rfingers 7.12502
rthumb 25.4047 -36.0639
lclavicle 5.56597e-015 3.77691e-015
lhumerus 29.2806 -9.48057 2.77111
lradius 44.3511
lwrist 18.3609
lhand -6.07869 -340.667
lfingers 7.12502
lthumb 19.7567 408.349
rfemur -15.4039 28.2241 3.70322
rtibia 25.37
rfoot -12.7836 -32.2136
rtoes 3.62132
lfemur -19.6068 -29.2409 -4.58335
ltibia 26.566
lfoot 4.8087 26.4012
ltoes 21.7537
2399
root 5.76242 9.66556 15.1554 88.4844 0.705157 -0.830307
lowerback 3.03067 -1.7753 2.31575
upperback -3.95646 -2.34177 -1.30991
thorax -5.95822 -1.30624 -2.46595
lowerneck -10.2397 -4.53614 -13.279
upperneck 0.538838 -5.32092 19.3808
head 2.82203 -2.17285 7.93784
rclavicle 9.54166e-015 0
rhumerus 31.858 18.6247 2.48952
rradius 51.4203
rwrist -32.6507
rhand -0.694654 -7.57079
rfingers 7.12502
rthumb 24.9249 -35.9655
lclavicle 9.54166e-015 0
lhumerus 28.029 -9.97283 3.88619
lradius 45.962
lwrist 20.1705
lhand -7.41748 -340.615
lfingers 7.12502
lthumb 18.4693 408.528
rfemur -15.4195 28.8945 4.19158
rtibia 25.9276
rfoot -14.317 -32.5212
rtoes 4.8864
lfemur -19.4588 -29.2496 -5.20807
ltibia 27.0326
lfoot 3.96849 26.6507
ltoes 21.8181
2400
root 5.75948 9.65898 15.1015 87.9415 0.707394 -0.785542
lowerback 3.40429 -1.77894 2.28959
upperback -3.89071 -2.33941 -1.30464
thorax -6.10192 -1.30358 -2.43591
lowerneck -10.3429 -4.56492 -13.0996
upperneck 0.180173 -5.32414 19.2875
head 2.72785 -2.18079 7.87277
rclavicle 4.77083e-015 -7.95139e-015
rhumerus 30.59 19.4266 1.55899
rradius 53.5458
rwrist -34.6496
rhand -1.2774 -7.50969
rfingers 7.12502
rthumb 24.3663 -35.9806
lclavicle 4.77083e-015 -7.95139e-015
lhumerus 26.8045 -10.4443 5.01352
lradius 47.6053
lwrist 21.9264
lhand -8.70909 -340.554
lfingers 7.12502
lthumb 17.2264 408.703
rfemur -15.3664 29.3041 4.74546
rtibia 26.509
rfoot -15.6312 -32.6518
rtoes 6.08166
lfemur -19.2598 -29.1932 -5.87955
ltibia 27.489
lfoot 3.07033 26.8256
ltoes 21.8123
2401
root 5.75639 9.65316 15.0464 87.3924 0.704549 -0.727661
lowerback 3.78911 -1.78305 2.25822
upperback -3.81511 -2.33809 -1.3026
thorax -6.24173 -1.30104 -2.40613
lowerneck -10.4559 -4.60179 -12.9265
upperneck -0.203944 -5.33412 19.1909
head 2.62902 -2.19275 7.80751
rclavicle -1.90833e-014 -2.38542e-015
rhumerus 29.3329 20.1969 0.625383
rradius 55.6936
rwrist -36.7462
rhand -1.91919 -7.52777
rfingers 7.12502
rthumb 23.7509 -36.08
lclavicle -1.90833e-014 -2.38542e-015
lhumerus 25.6108 -10.8845 6.15452
lradius 49.2741
lwrist 23.5913
lhand -9.86233 -340.505
lfingers 7.12502
lthumb 16.1162 408.845
rfemur -15.2599 29.4784 5.34871
rtibia 27.1072
rfoot -16.7288 -32.6388
rtoes 7.12272
lfemur -19.0252 -29.0976 -6.58463
ltibia 27.9322
lfoot 2.1035 26.983
ltoes 21.8619
2402
root 5.7537 9.648 14.9905 86.8615 0.697669 -0.644819
lowerback 4.16118 -1.79396 2.23324
upperback -3.73864 -2.34637 -1.30681
thorax -6.3746 -1.30364 -2.38595
lowerneck -10.5977 -4.64542 -12.7584
upperneck -0.593006 -5.35081 19.1093
head 2.53533 -2.2068 7.7479
rclavicle -1.74931e-014 -2.24627e-014
rhumerus 28.1074 20.9363 -0.34219
rradius 57.8167
rwrist -38.787
rhand -2.59624 -7.5902
rfingers 7.12502
rthumb 23.1014 -36.2253
lclavicle -1.74931e-014 -2.24627e-014
lhumerus 24.443 -11.2884 7.2967
lradius 50.9643
lwrist 25.1111
lhand -10.8292 -340.495
lfingers 7.12502
lthumb 15.1851 408.928
rfemur -15.1265 29.4325 5.97657
rtibia 27.7114
rfoot -17.6112 -32.5166
rtoes 7.95006
lfemur -18.7942 -28.9751 -7.3036
ltibia 28.3655
lfoot 1.09995 27.1337
ltoes 21.9539
2403
root 5.75116 9.6435 14.9337 86.3315 0.694505 -0.555201
lowerback 4.54091 -1.80634 2.20924
upperback -3.65968 -2.35666 -1.31185
thorax -6.50951 -1.30724 -2.36678
lowerneck -10.7742 -4.69567 -12.5889
upperneck -0.953227 -5.37808 19.0339
head 2.45751 -2.2239 7.68932
rclavicle -6.36111e-015 -6.55989e-015
rhumerus 26.9284 21.6537 -1.32929
rradius 59.8859
rwrist -40.661
rhand -3.28349 -7.65966
rfingers 7.12502
rthumb 22.4419 -36.3758
lclavicle -6.36111e-015 -6.55989e-015
lhumerus 23.3037 -11.6413 8.45066
lradius 52.6705
lwrist 26.472
lhand -11.5997 -340.536
lfingers 7.12502
lthumb 14.4427 408.942
rfemur -14.9553 29.2314 6.63574
rtibia 28.3115
rfoot -18.2909 -32.3275
rtoes 8.55395
lfemur -18.5456 -28.8332 -8.03256
ltibia 28.7955
lfoot 0.113379 27.2757
ltoes 22.1442
2404
root 5.74864 9.63954 14.8758 85.7941 0.689712 -0.468626
lowerback 4.94129 -1.81647 2.1775
upperback -3.57676 -2.36432 -1.31789
thorax -6.65173 -1.30913 -2.34403
lowerneck -10.9784 -4.75214 -12.4269
upperneck -1.27846 -5.41576 18.9648
head 2.39627 -2.24411 7.63333
rclavicle 1.11319e-014 1.19271e-014
rhumerus 25.8048 22.3622 -2.31115
rradius 61.886
rwrist -42.2954
rhand -3.97852 -7.70512
rfingers 7.12502
rthumb 21.7746 -36.5003
lclavicle 1.11319e-014 1.19271e-014
lhumerus 22.1951 -11.9486 9.62631
lradius 54.3875
lwrist 27.6568
lhand -12.1962 -340.621
lfingers 7.12502
lthumb 13.8679 408.897
rfemur -14.7446 28.9185 7.31352
rtibia 28.8994
rfoot -18.771 -32.0784
rtoes 9.07819
lfemur -18.2737 -28.691 -8.77573
ltibia 29.23
lfoot -0.768778 27.393
ltoes 22.4156
